<?xml version="1.0" standalone="no"?>
<!DOCTYPE svg PUBLIC "-//W3C//DTD SVG 20010904//EN"
 "http://www.w3.org/TR/2001/REC-SVG-20010904/DTD/svg10.dtd">
<svg version="1.0" xmlns="http://www.w3.org/2000/svg"
 width="16.000000pt" height="16.000000pt" viewBox="0 0 16.000000 16.000000"
 preserveAspectRatio="xMidYMid meet">
<metadata>
Created by potrace 1.11, written by Peter Selinger 2001-2013
</metadata>
<g transform="translate(0.000000,16.000000) scale(0.018182,-0.018182)"
fill="#000000" stroke="none">
<path d="M65 435 l0 -330 162 0 c158 0 162 1 166 22 5 27 -4 28 -153 28 l-116
0 0 305 1 304 -30 1 -30 1 0 -331z"/>
<path d="M189 638 c0 -13 -1 -115 -2 -227 l0 -204 22 -4 c23 -3 23 -2 19 72
-3 62 -1 75 12 76 8 0 42 0 75 -1 121 -3 157 36 154 165 -1 44 -6 86 -12 93
-5 6 -6 12 -1 12 5 0 -4 9 -21 20 -25 17 -47 20 -137 20 -105 0 -108 -1 -109
-22z m218 -19 c7 -1 10 -6 7 -10 -2 -4 0 -10 6 -14 6 -4 9 -41 6 -91 -4 -106
-11 -113 -118 -114 -43 0 -78 3 -79 8 0 4 -2 54 -2 110 -2 78 1 106 12 111 11
7 129 6 168 0z"/>
<path d="M606 645 c-60 -32 -78 -85 -78 -226 0 -174 40 -221 185 -216 82 2 91
6 81 31 -4 11 -13 15 -26 10 -34 -11 -81 -11 -121 -1 -55 14 -70 49 -72 172
-2 107 14 179 44 194 31 17 83 19 126 6 41 -12 44 -11 49 8 3 12 3 24 0 27 -3
2 -40 6 -82 8 -56 2 -85 -1 -106 -13z"/>
</g>
</svg>
